<?xml version="1.0" standalone="no"?>
<!DOCTYPE svg PUBLIC "-//W3C//DTD SVG 20010904//EN"
 "http://www.w3.org/TR/2001/REC-SVG-20010904/DTD/svg10.dtd">
<svg version="1.0" xmlns="http://www.w3.org/2000/svg"
 width="400.000000pt" height="400.000000pt" viewBox="0 0 400.000000 400.000000"
 preserveAspectRatio="xMidYMid meet">
<metadata>
Created by potrace 1.14, written by Peter Selinger 2001-2017
</metadata>
<g transform="translate(0.000000,400.000000) scale(0.100000,-0.100000)"
fill="#000000" stroke="none">
<path d="M1787 3610 c-14 -14 -15 -19 -5 -23 11 -4 11 -6 0 -6 -7 -1 -10 -5
-7 -11 3 -5 0 -7 -9 -4 -9 3 -19 -3 -27 -18 -10 -20 -10 -22 2 -13 8 6 3 -1
-11 -14 -14 -13 -19 -20 -11 -16 10 6 12 4 7 -4 -5 -7 -15 -10 -23 -6 -14 5
-14 3 -2 -12 9 -11 10 -14 2 -9 -8 4 -13 2 -13 -8 0 -8 -5 -18 -12 -22 -7 -5
-8 -3 -3 6 6 9 4 11 -4 6 -7 -5 -10 -14 -7 -22 3 -8 1 -14 -5 -14 -6 0 -7 -4
-4 -10 3 -6 -1 -7 -9 -4 -11 4 -16 0 -16 -11 0 -10 5 -13 12 -9 7 4 8 3 4 -5
-4 -6 -12 -9 -17 -6 -5 4 -9 0 -9 -7 0 -17 -36 -49 -45 -40 -4 4 -6 2 -5 -3 5
-25 -1 -45 -15 -45 -9 0 -12 -6 -8 -17 4 -11 3 -14 -5 -9 -7 4 -12 1 -12 -9 0
-9 -4 -13 -10 -10 -5 3 -10 -3 -10 -15 0 -13 -4 -19 -12 -14 -8 5 -9 0 -5 -15
4 -18 3 -20 -8 -11 -10 8 -15 8 -21 -1 -5 -8 -3 -9 6 -4 8 5 11 3 8 -6 -3 -8
-11 -13 -17 -11 -7 1 -10 -1 -7 -6 3 -5 -2 -18 -10 -28 -9 -10 -12 -13 -8 -5
4 9 3 12 -4 7 -6 -3 -9 -15 -7 -26 2 -13 -1 -17 -10 -14 -10 4 -13 0 -10 -16
4 -18 2 -20 -11 -9 -12 10 -13 9 -8 -6 6 -14 4 -16 -6 -10 -10 6 -12 4 -7 -8
4 -12 1 -17 -11 -17 -15 0 -15 -2 -2 -10 13 -8 12 -10 -3 -10 -10 0 -15 -5
-12 -10 4 -6 -15 -31 -42 -56 -31 -30 -39 -42 -23 -34 19 9 14 2 -16 -26 -22
-22 -39 -44 -37 -50 2 -6 -7 -19 -19 -30 -22 -19 -23 -19 -8 1 14 19 14 19 -3
6 -14 -11 -15 -16 -5 -29 10 -13 10 -14 0 -8 -8 5 -16 -2 -23 -21 -5 -15 -23
-40 -39 -54 -22 -20 -26 -29 -17 -38 7 -7 8 -12 2 -11 -21 4 -36 0 -30 -9 3
-6 -4 -15 -16 -21 -11 -7 -18 -14 -15 -17 3 -3 -2 -12 -12 -20 -9 -8 -11 -11
-3 -7 10 5 12 3 7 -5 -5 -7 -15 -10 -23 -6 -13 4 -13 3 -4 -9 9 -11 5 -19 -19
-40 -17 -14 -29 -30 -26 -35 7 -11 -20 -35 -32 -27 -5 3 -8 -5 -7 -19 2 -16
-1 -22 -10 -19 -7 3 -16 0 -21 -7 -4 -8 -3 -10 4 -5 7 4 12 2 12 -3 0 -6 -4
-11 -10 -11 -5 0 -10 -7 -10 -15 0 -9 -7 -18 -15 -21 -8 -4 -15 -12 -15 -20 0
-8 -7 -14 -15 -14 -8 0 -14 -6 -12 -12 1 -7 -6 -12 -16 -12 -14 2 -15 -1 -6
-12 9 -11 8 -15 -5 -20 -9 -3 -13 -10 -10 -15 3 -5 0 -9 -6 -9 -7 0 -10 -6 -7
-13 3 -8 -1 -14 -9 -14 -8 0 -14 5 -14 10 0 6 -3 7 -6 4 -4 -4 -1 -14 7 -24 9
-11 10 -14 2 -9 -8 4 -13 2 -13 -4 0 -6 -5 -8 -12 -4 -9 5 -8 2 1 -9 12 -15
12 -17 -2 -11 -12 4 -15 1 -12 -14 2 -13 -2 -19 -13 -18 -13 1 -16 -6 -15 -29
2 -21 0 -26 -7 -16 -7 12 -11 13 -24 2 -13 -11 -14 -17 -4 -28 9 -11 9 -13 0
-11 -12 3 -35 -29 -48 -64 -3 -10 -9 -18 -13 -18 -4 0 -16 -7 -27 -16 -19 -15
-19 -16 1 -10 20 6 20 6 1 -9 -11 -8 -25 -15 -30 -15 -6 0 -4 -5 4 -10 13 -8
13 -10 -2 -10 -9 0 -20 -5 -24 -12 -4 -7 -3 -8 4 -4 8 5 10 2 6 -8 -3 -9 -11
-14 -17 -13 -7 1 -11 -4 -9 -10 1 -7 -3 -13 -9 -13 -5 0 -7 -5 -3 -12 5 -8 2
-9 -11 -4 -15 5 -16 4 -5 -9 11 -13 11 -16 -1 -13 -8 2 -15 -7 -17 -20 -3 -16
-8 -22 -19 -18 -11 4 -13 2 -9 -9 3 -8 1 -15 -5 -15 -6 0 -7 -4 -4 -10 3 -6
-1 -7 -10 -4 -9 4 -15 3 -14 -2 1 -5 1 -17 0 -28 -1 -15 -4 -16 -16 -6 -13 11
-15 9 -13 -11 2 -15 -2 -24 -12 -24 -9 0 -15 -10 -15 -25 0 -19 -6 -26 -24
-28 -18 -3 -21 -6 -10 -12 10 -7 8 -11 -11 -19 -14 -5 -19 -10 -12 -10 7 -1
10 -6 7 -11 -4 -6 -11 -7 -17 -4 -7 4 -8 2 -4 -5 9 -14 -12 -43 -25 -35 -5 3
-6 -3 -2 -12 5 -13 3 -15 -7 -9 -10 6 -12 4 -7 -9 4 -10 3 -15 -3 -11 -6 3
-10 1 -10 -5 0 -6 -4 -8 -10 -5 -5 3 -7 0 -4 -8 3 -8 -3 -20 -13 -28 -17 -13
-17 -13 -3 6 14 19 14 19 -3 6 -10 -8 -16 -20 -13 -26 2 -7 -1 -18 -7 -24 -9
-9 -8 -14 3 -21 12 -8 12 -10 1 -10 -8 0 -11 -6 -7 -16 5 -12 2 -15 -10 -10
-14 5 -15 4 -4 -9 8 -10 9 -15 1 -15 -6 0 -11 -5 -11 -11 0 -5 6 -7 13 -3 10
6 10 4 0 -7 -7 -7 -13 -17 -13 -22 0 -4 6 -5 13 -2 6 4 4 0 -5 -8 -10 -8 -15
-17 -11 -20 8 -9 10 -67 2 -67 -4 0 -3 -16 1 -34 4 -19 5 -37 2 -40 -3 -4 1
-6 9 -6 11 0 11 -2 -1 -10 -12 -8 -12 -10 -1 -10 10 0 11 -3 2 -14 -9 -11 -9
-16 0 -22 7 -4 9 -3 6 3 -3 5 0 10 8 10 11 0 11 -5 4 -19 -7 -14 -7 -24 1 -34
7 -7 9 -21 6 -30 -4 -11 -2 -15 7 -11 12 4 16 -7 20 -55 1 -10 8 -15 19 -13
10 2 18 0 18 -6 0 -5 -6 -9 -12 -9 -9 0 -8 -3 2 -9 8 -6 19 -7 25 -4 5 4 7 3
3 -2 -4 -4 -3 -14 4 -22 9 -11 7 -12 -8 -7 -15 5 -16 4 -4 -4 10 -8 19 -7 29
1 12 9 13 9 7 -1 -6 -11 0 -14 20 -11 4 0 11 -5 15 -13 7 -11 12 -11 30 0 11
8 18 9 15 4 -3 -6 1 -13 10 -16 22 -8 26 -8 19 4 -3 5 0 7 9 4 9 -3 12 -13 9
-22 -4 -13 -2 -12 11 3 10 11 14 14 10 6 -5 -11 -3 -13 9 -8 10 3 17 3 17 -2
0 -5 11 -7 25 -6 14 2 27 -1 31 -6 3 -5 11 -9 17 -9 7 0 6 4 -3 10 -8 5 -11
10 -6 10 5 0 18 -8 28 -17 18 -16 18 -16 12 3 -7 17 -6 17 9 5 9 -7 14 -18 10
-24 -3 -6 -1 -7 6 -3 6 4 9 11 7 15 -3 4 1 8 9 8 8 0 12 -4 9 -8 -2 -4 0 -10
6 -14 5 -3 10 0 10 7 0 10 2 10 9 -1 6 -9 10 -10 16 -2 5 9 10 9 21 1 7 -7 19
-10 26 -7 20 7 50 -12 41 -26 -4 -8 -1 -7 10 1 9 8 25 11 36 7 38 -12 73 -16
68 -7 -3 4 3 8 13 8 10 0 17 -3 14 -7 -2 -4 6 -11 18 -15 38 -13 48 -13 48 -1
0 7 5 4 11 -6 8 -13 14 -15 30 -7 10 6 19 7 19 2 0 -5 16 -8 35 -7 24 0 34 -3
31 -11 -5 -13 11 -13 33 0 10 6 12 5 7 -2 -4 -7 -3 -12 3 -12 5 0 12 6 14 13
4 9 6 9 6 0 1 -8 16 -13 39 -13 21 0 44 -6 51 -12 8 -7 11 -8 8 -3 -3 6 6 11
19 11 13 1 22 -1 19 -6 -2 -4 7 -12 20 -18 13 -6 27 -7 30 -3 6 10 24 9 42 -2
6 -4 14 -1 16 5 3 7 6 4 6 -6 1 -20 1 -20 17 0 8 10 12 13 8 5 -5 -11 -3 -13
9 -8 10 3 17 2 17 -2 0 -15 32 -22 46 -10 11 9 14 9 14 0 0 -7 8 -11 18 -9 9
1 23 -1 30 -5 6 -5 12 -4 12 2 0 6 7 8 15 5 8 -4 12 -11 8 -17 -4 -6 -1 -7 8
-1 18 11 70 13 63 2 -3 -5 -10 -5 -16 -2 -6 4 -8 2 -5 -4 4 -5 17 -8 29 -4 16
4 19 2 13 -9 -5 -8 2 -5 15 6 13 11 20 15 17 9 -4 -7 2 -14 13 -17 12 -3 18
-1 14 5 -4 6 1 6 13 -1 14 -7 24 -7 34 2 7 7 10 8 6 3 -11 -14 26 -36 40 -24
9 7 13 7 13 -1 0 -6 4 -11 10 -11 5 0 7 8 4 18 -5 16 -5 16 6 0 6 -10 17 -15
27 -11 11 4 14 3 9 -5 -5 -9 -1 -9 17 -3 13 5 29 6 36 1 11 -6 11 -8 0 -12 -8
-3 15 -4 50 -4 41 1 69 -4 78 -12 7 -7 13 -9 13 -4 0 5 7 9 15 9 8 0 15 -7 15
-16 0 -11 3 -11 16 5 13 16 15 16 10 1 -7 -21 3 -22 18 -3 9 13 13 13 26 -2
13 -14 12 -15 -5 -8 -17 6 -18 5 -7 -6 11 -11 16 -10 28 6 12 17 14 18 14 3 0
-17 23 -19 48 -4 6 5 12 4 12 -1 0 -5 22 -9 50 -8 27 1 50 5 50 10 0 5 3 6 7
3 3 -4 18 3 32 15 22 20 23 20 8 2 -25 -30 -21 -37 6 -11 13 12 22 25 20 29
-4 8 12 12 30 9 4 -1 2 9 -4 21 -11 20 -10 21 3 10 13 -10 17 -10 22 3 4 11 2
14 -7 10 -6 -4 -5 -1 4 7 8 7 18 21 22 31 4 10 11 16 16 12 5 -3 13 0 17 6 4
8 3 9 -4 5 -19 -11 -14 5 6 21 9 8 11 12 5 8 -7 -3 -13 -1 -13 4 0 10 13 15
31 13 4 -1 5 8 2 18 -3 11 0 20 6 20 5 0 8 7 5 15 -5 11 -2 13 9 9 12 -4 15
-1 12 15 -2 12 1 21 6 21 6 0 7 5 4 10 -3 6 1 10 9 10 17 0 17 20 1 33 -5 5 1
5 14 2 15 -5 21 -3 17 3 -3 6 4 18 16 28 18 13 19 15 4 10 -16 -5 -17 -4 -6 9
7 8 17 12 22 9 6 -4 5 3 -1 15 -7 12 -8 21 -4 20 19 -3 34 2 29 10 -3 4 3 16
14 26 16 15 18 21 7 33 -10 13 -9 14 2 7 11 -6 13 -4 7 10 -5 15 -4 16 9 5 13
-11 14 -10 9 5 -5 13 -4 16 4 11 8 -5 10 -2 6 8 -3 9 -1 16 4 16 6 0 9 9 7 21
-3 16 -1 18 8 10 10 -7 13 -4 15 15 2 32 11 46 23 39 5 -4 9 0 9 9 0 8 -5 17
-10 19 -6 3 -5 4 2 3 13 -3 38 17 38 29 0 3 -6 3 -12 0 -7 -4 -5 0 4 8 10 8
14 18 10 22 -4 5 2 5 13 1 16 -6 18 -5 8 5 -15 15 -17 33 -3 24 6 -3 10 -1 10
5 0 6 5 8 13 4 7 -5 7 -2 -2 10 -8 9 -10 16 -5 15 21 -4 28 2 14 11 -12 8 -10
10 10 10 20 0 22 2 10 10 -13 9 -12 13 8 30 13 11 21 24 18 29 -4 5 -1 13 5
17 8 5 9 3 4 -6 -5 -9 -4 -11 4 -6 9 6 9 11 -1 24 -10 12 -10 14 0 8 7 -4 12
-2 12 4 0 6 5 8 12 4 7 -5 8 -3 3 6 -5 8 -2 18 6 24 8 6 20 21 27 34 10 18 10
22 0 23 -7 0 -3 4 10 10 13 5 20 13 17 19 -3 5 -2 10 4 10 6 0 8 7 5 15 -4 9
0 15 10 15 10 0 13 5 9 17 -4 11 -3 14 5 9 7 -4 12 -1 12 8 0 8 7 22 16 30 8
9 13 16 9 16 -3 0 3 10 14 22 16 16 18 25 9 35 -6 7 -8 16 -4 20 3 3 6 1 6 -5
0 -7 5 -12 11 -12 5 0 7 5 4 10 -3 6 -1 10 5 10 7 0 9 7 6 16 -4 11 -2 15 7
11 8 -3 14 3 14 16 1 11 8 24 15 28 10 7 10 9 -2 9 -13 0 -13 1 0 10 9 6 17 5
23 -3 4 -7 4 2 1 18 -6 26 -5 28 8 17 13 -10 15 -9 13 13 -2 14 0 25 5 25 14
0 62 91 56 106 -3 8 -2 13 2 10 4 -2 16 3 27 11 20 16 20 16 0 9 -19 -6 -19
-5 -2 8 14 10 15 15 5 19 -7 3 -3 6 9 6 16 1 21 6 17 16 -4 8 -1 15 6 15 6 0
8 5 4 12 -4 6 1 17 10 24 10 7 18 16 19 21 1 4 5 7 9 6 4 -2 4 5 1 14 -5 12
-3 14 7 8 10 -6 12 -4 7 8 -3 9 -2 19 4 22 5 4 6 12 2 18 -4 7 2 5 12 -3 12
-10 16 -10 11 -2 -4 7 -2 19 4 27 6 8 9 19 6 24 -4 5 -1 13 5 17 8 5 9 3 4 -6
-6 -9 -4 -11 4 -6 7 5 10 14 7 22 -3 9 1 14 12 14 15 0 15 2 2 10 -13 8 -13
10 2 10 12 0 16 6 13 20 -2 11 0 18 6 15 5 -4 9 -1 9 5 0 6 5 8 10 5 6 -3 10
-1 10 4 0 6 -6 11 -12 11 -10 0 -9 3 1 9 8 5 10 14 5 22 -6 11 -4 11 10 0 15
-13 17 -12 12 12 -3 20 -1 25 11 20 11 -4 14 -2 9 5 -4 7 -2 12 5 12 7 0 9 3
6 7 -4 3 1 12 12 19 10 7 18 24 17 36 -2 24 21 61 34 53 3 -2 6 6 6 18 -1 15
4 22 17 21 13 -2 15 1 7 11 -8 9 -6 14 5 19 9 3 14 10 10 15 -3 5 -1 12 5 16
6 4 7 11 4 17 -5 8 -1 9 11 4 15 -5 16 -4 5 9 -11 13 -11 16 0 13 7 -2 15 3
17 10 3 6 -1 12 -7 12 -10 0 -10 4 0 15 10 12 10 15 0 15 -10 0 -10 3 0 15 12
15 5 20 -25 16 -5 -1 -1 6 9 14 18 14 15 20 -9 15 -5 -1 -1 8 10 20 17 18 17
20 2 14 -19 -7 -20 15 -2 28 7 5 6 8 0 8 -6 0 -11 20 -11 45 -1 29 3 42 10 38
8 -5 8 -3 0 8 -12 16 -12 48 -1 66 4 6 3 15 -3 18 -8 5 -7 12 2 23 11 13 11
15 -2 8 -8 -4 -4 2 10 15 l25 22 -25 -7 c-22 -6 -23 -5 -8 6 13 11 14 18 5 33
-9 17 -9 18 5 7 13 -11 15 -8 12 18 -3 21 0 29 7 24 8 -4 8 0 0 14 -8 15 -8
23 1 28 7 5 8 2 3 -7 -5 -10 -5 -11 3 -4 13 13 22 79 12 95 -4 7 -15 10 -24 7
-9 -4 -16 -2 -16 3 0 5 -13 5 -31 0 -25 -8 -29 -7 -19 5 8 10 8 15 -1 21 -8 4
-9 3 -5 -4 4 -7 2 -12 -3 -13 -37 -4 -56 -1 -54 7 1 5 -19 8 -43 7 -26 -2 -43
1 -39 7 5 8 -34 5 -64 -5 -9 -4 -11 0 -7 10 3 10 2 13 -5 10 -5 -4 -17 -1 -26
7 -12 9 -15 9 -9 1 4 -7 3 -13 -3 -13 -5 0 -13 5 -16 10 -4 7 -13 6 -27 -1
-11 -6 -23 -7 -27 -3 -10 14 -112 15 -105 1 4 -7 3 -8 -2 -4 -5 5 -10 13 -10
18 -1 5 -2 12 -3 16 0 4 -8 -2 -16 -13 -13 -16 -14 -16 -9 -1 3 9 1 17 -5 17
-6 0 -11 -5 -11 -11 0 -5 -5 -7 -10 -4 -6 4 -8 10 -6 14 3 3 -4 7 -14 7 -10 0
-16 -4 -14 -8 3 -4 0 -8 -5 -8 -6 0 -11 6 -11 13 0 8 -4 7 -10 -3 -5 -8 -10
-10 -10 -4 0 6 -13 9 -30 6 -18 -3 -30 0 -30 7 0 6 -5 11 -11 11 -5 0 -8 -4
-5 -9 9 -14 -32 0 -45 15 -9 11 -15 12 -26 2 -11 -9 -16 -9 -23 1 -6 11 -8 11
-12 0 -4 -12 -8 -12 -20 -1 -13 10 -17 10 -21 0 -4 -10 -6 -10 -6 1 -1 11 -4
11 -18 0 -9 -8 -14 -9 -10 -3 4 7 0 15 -9 18 -10 4 -13 2 -8 -6 5 -7 -1 -9
-19 -4 -16 4 -27 1 -31 -7 -3 -6 -3 -2 0 10 5 22 -8 26 -33 10 -6 -4 -14 -4
-17 1 -2 4 -24 9 -47 11 -23 1 -46 4 -51 7 -4 3 -8 0 -8 -6 0 -6 -5 -8 -10 -5
-6 4 -8 10 -6 14 3 4 -6 7 -20 7 -13 0 -24 -5 -24 -10 0 -6 -4 -5 -9 3 -5 8
-18 12 -30 8 -12 -3 -19 -1 -16 4 4 5 -8 7 -24 5 -17 -2 -33 -1 -36 2 -8 9
-36 11 -31 3 3 -4 -4 -7 -14 -7 -10 0 -17 3 -14 7 2 4 -5 9 -16 12 -11 3 -17
1 -14 -4 3 -5 -4 -8 -16 -6 -12 2 -26 10 -31 18 -6 9 -9 10 -9 2 0 -9 -7 -10
-27 -2 -16 6 -29 10 -30 10 -2 -1 -6 -1 -10 0 -5 0 -27 0 -50 -1 -30 -1 -43 3
-44 12 0 7 -4 4 -9 -7 -7 -17 -9 -17 -9 -2 -1 20 -12 22 -30 5 -11 -10 -13
-10 -7 0 8 13 -6 16 -57 13 -20 -1 -26 2 -21 11 6 9 3 9 -9 -1 -14 -11 -17
-11 -17 0 0 11 -2 11 -10 -1 -8 -12 -10 -12 -10 -1 0 10 -3 11 -14 2 -10 -8
-16 -8 -25 2 -6 8 -8 17 -4 20 3 4 1 7 -6 7 -8 0 -10 -8 -6 -22 5 -17 4 -19
-3 -9 -6 8 -17 11 -27 8 -9 -4 -14 -3 -10 2 8 14 -17 20 -37 9 -10 -5 -18 -5
-18 0 0 4 -9 8 -20 8 -11 0 -20 -5 -20 -11 0 -6 -3 -6 -8 1 -5 8 -13 6 -25 -6z
m1237 -139 c3 -5 -1 -11 -9 -14 -9 -4 -12 -1 -8 9 6 16 10 17 17 5z m-343
-291 c-3 -3 -7 -13 -9 -24 -2 -13 1 -16 10 -10 10 6 11 5 1 -7 -7 -9 -11 -26
-8 -38 4 -19 2 -21 -11 -10 -12 10 -13 9 -8 -5 3 -9 1 -16 -5 -16 -6 0 -11 -5
-11 -11 0 -5 5 -7 12 -3 7 4 8 3 4 -5 -4 -6 -12 -9 -17 -6 -5 4 -9 -1 -9 -10
0 -8 -7 -18 -15 -21 -8 -4 -12 -11 -8 -17 4 -6 0 -8 -11 -4 -14 6 -15 4 -5
-14 7 -15 8 -19 0 -15 -6 4 -17 -7 -26 -26 -8 -18 -13 -25 -10 -15 6 24 0 21
-20 -9 -9 -15 -12 -23 -6 -20 6 4 11 3 11 -1 0 -5 -9 -14 -20 -21 -12 -7 -18
-18 -14 -24 5 -8 1 -9 -11 -4 -15 5 -16 4 -6 -8 10 -12 8 -16 -8 -21 -12 -3
-21 -11 -21 -16 0 -6 6 -7 13 -3 7 4 9 3 4 -2 -5 -5 -14 -9 -19 -9 -6 0 -13
-6 -16 -14 -3 -9 0 -11 8 -6 9 5 11 4 6 -4 -4 -6 -10 -9 -14 -7 -4 2 -13 -2
-20 -10 -8 -9 -9 -14 -2 -14 6 0 8 -5 5 -11 -4 -6 -13 -8 -21 -5 -8 3 -11 0
-7 -10 3 -7 0 -14 -5 -14 -6 0 -9 -9 -7 -21 4 -18 2 -19 -12 -7 -9 7 -14 8
-11 3 4 -6 -3 -22 -14 -35 -11 -14 -17 -20 -14 -14 4 7 -6 13 -23 16 -25 4
-29 1 -25 -16 2 -11 11 -27 19 -35 15 -15 15 -14 9 2 -3 10 -1 17 5 17 6 0 11
-6 11 -12 0 -7 11 -13 24 -13 13 0 22 3 19 8 -2 4 1 7 6 7 6 0 11 -5 11 -10 0
-6 6 -9 13 -8 6 2 11 -5 11 -14 -1 -11 3 -15 10 -11 6 3 2 -3 -9 -14 -11 -11
-22 -16 -23 -11 -2 4 -11 0 -20 -10 -10 -9 -14 -13 -9 -8 4 6 7 13 7 17 0 8
-44 4 -59 -6 -6 -3 -14 1 -17 10 -6 14 -8 14 -19 -1 -9 -14 -14 -14 -20 -4 -6
9 -4 11 5 5 8 -5 11 -4 7 2 -4 7 -20 8 -39 4 -35 -8 -84 9 -70 24 4 5 0 4 -8
-1 -20 -12 -31 -12 -54 -1 -13 6 -16 6 -12 -2 10 -15 -7 -14 -22 1 -9 9 -12 9
-12 -1 0 -7 -5 -9 -10 -6 -6 4 -7 12 -3 18 5 9 3 9 -8 1 -22 -17 -51 -14 -44
5 4 12 2 12 -9 -2 -12 -16 -14 -16 -20 -2 -4 13 -10 14 -26 5 -16 -9 -20 -8
-20 5 0 8 -8 15 -17 15 -15 0 -14 2 3 16 10 8 12 12 4 8 -12 -5 -12 -4 -3 6 6
7 37 13 68 14 46 1 59 -3 67 -17 9 -18 10 -18 31 0 11 10 17 13 14 7 -4 -7 0
-15 9 -18 8 -3 12 -2 9 4 -3 6 -1 10 4 10 6 0 11 -6 11 -12 0 -9 4 -8 10 2 5
8 10 10 10 3 0 -6 9 -9 21 -6 12 4 25 0 30 -8 7 -12 9 -12 9 0 0 11 3 11 17 0
9 -8 14 -9 10 -3 -9 15 36 12 46 -3 4 -7 13 -13 18 -13 6 0 7 4 4 10 -3 5 -8
20 -10 31 -5 25 -15 38 -15 20 0 -8 -5 -9 -18 -2 -13 7 -23 6 -32 -2 -10 -9
-14 -9 -17 1 -3 6 -10 9 -16 5 -7 -4 -22 -8 -34 -8 -16 -1 -19 2 -12 11 7 8 6
15 -2 20 -8 4 -9 3 -5 -4 5 -8 -1 -12 -14 -12 -14 0 -19 -4 -14 -12 4 -8 3
-10 -2 -5 -5 5 -9 12 -10 15 0 4 -4 15 -9 25 -5 11 -3 23 5 30 10 9 11 9 5 -2
-5 -9 -4 -12 3 -7 7 4 12 14 12 22 0 10 5 12 13 8 9 -6 9 -4 -1 8 -11 14 -8
19 18 38 16 12 38 20 47 19 31 -3 38 1 23 12 -12 9 -11 10 7 6 15 -3 20 -1 16
9 -3 10 0 12 10 9 10 -5 14 0 13 17 0 13 5 23 12 24 23 3 24 4 13 18 -9 11 -8
15 6 21 10 5 22 7 26 6 4 -1 3 8 -3 18 -6 12 -6 22 -1 26 6 3 8 15 6 26 -4 17
-2 19 11 8 12 -10 13 -9 8 6 -5 12 -4 16 3 12 6 -4 10 3 9 16 0 12 4 21 10 20
6 -1 10 9 8 22 -1 14 2 27 7 31 5 3 7 9 4 14 -3 4 3 14 12 21 12 10 14 10 9 2
-4 -7 -2 -13 3 -13 6 0 11 5 11 11 0 6 7 8 15 5 9 -3 18 1 21 9 4 8 10 12 15
9 6 -3 16 0 24 6 12 10 15 10 15 -1 0 -9 3 -10 8 -4 11 15 32 17 47 5 11 -9
12 -6 8 12 -3 13 -1 19 4 13 13 -16 36 -17 30 -1 -5 11 0 13 24 6 20 -6 29 -5
29 3 0 7 4 6 10 -3 8 -13 10 -12 10 3 0 15 2 16 14 5 8 -7 11 -15 7 -18z m984
-127 c-1 -10 3 -24 9 -32 9 -12 8 -13 -3 -6 -11 6 -13 3 -9 -13 4 -12 2 -25
-3 -28 -5 -3 -9 -10 -9 -15 0 -6 4 -8 8 -5 5 3 9 -1 9 -9 0 -8 -3 -12 -7 -10
-3 2 -6 -5 -6 -16 0 -10 4 -19 8 -19 5 0 4 -10 -3 -21 -8 -15 -8 -19 0 -15 7
5 11 -8 11 -39 0 -34 3 -44 13 -39 9 6 9 5 0 -8 -7 -8 -10 -18 -6 -21 3 -4 1
-7 -7 -7 -10 0 -10 -4 1 -17 10 -11 10 -14 2 -9 -8 4 -13 1 -13 -8 0 -9 -8
-16 -17 -16 -15 0 -16 -2 -3 -10 11 -7 11 -10 2 -10 -7 0 -10 -4 -7 -10 3 -5
0 -7 -9 -4 -11 4 -14 0 -11 -15 2 -12 -1 -21 -7 -21 -5 0 -8 -6 -5 -14 6 -14
-19 -44 -38 -45 -5 -1 -10 -9 -10 -18 0 -10 -6 -23 -15 -30 -8 -7 -11 -13 -6
-13 6 0 2 -6 -8 -13 -9 -7 -18 -23 -19 -35 -1 -13 -6 -21 -14 -18 -9 4 -10 -1
-3 -19 7 -19 6 -23 -5 -18 -9 3 -15 -1 -15 -10 0 -8 -9 -26 -20 -40 -11 -14
-20 -32 -20 -41 0 -9 -7 -19 -15 -22 -8 -4 -12 -10 -9 -15 5 -8 -10 -13 -29
-10 -5 1 -6 -3 -2 -9 3 -6 12 -7 18 -3 8 5 8 2 0 -9 -7 -8 -9 -19 -5 -24 4 -4
-2 -2 -12 6 -11 8 -17 10 -13 3 4 -6 2 -15 -4 -18 -5 -4 -8 -13 -5 -21 3 -9
-1 -14 -12 -14 -15 0 -15 -2 -2 -10 13 -9 7 -14 -12 -11 -4 0 -4 -7 -1 -16 4
-11 3 -14 -5 -9 -7 4 -12 1 -12 -8 0 -8 -4 -16 -10 -18 -5 -1 -11 -15 -12 -30
-2 -21 -5 -24 -15 -16 -10 8 -12 7 -7 -6 3 -9 1 -22 -5 -30 -6 -7 -8 -16 -4
-20 4 -4 0 -4 -9 -1 -9 4 -19 1 -24 -6 -4 -8 -3 -10 4 -5 7 4 12 2 12 -3 0 -6
-5 -11 -11 -11 -5 0 -7 -5 -3 -12 5 -7 2 -9 -9 -5 -12 4 -14 2 -10 -10 5 -12
3 -14 -8 -8 -12 8 -12 6 0 -8 9 -12 10 -17 2 -17 -7 0 -9 -4 -6 -10 3 -5 0 -7
-9 -4 -11 4 -14 0 -11 -15 2 -13 -1 -21 -10 -21 -8 0 -17 -5 -21 -12 -4 -7 -3
-8 4 -4 18 11 14 -4 -6 -22 -10 -10 -12 -13 -5 -8 10 6 12 4 7 -8 -3 -9 -13
-16 -21 -16 -13 0 -13 -3 -3 -15 11 -13 10 -14 -4 -9 -12 4 -15 2 -11 -9 4 -8
-1 -17 -9 -20 -10 -4 -13 -13 -9 -23 4 -12 3 -15 -5 -10 -7 4 -12 2 -12 -4 0
-6 -5 -8 -12 -4 -8 5 -7 1 2 -10 13 -16 12 -20 -9 -37 -13 -11 -19 -19 -15
-19 5 0 1 -5 -8 -11 -10 -5 -18 -15 -18 -20 0 -6 5 -7 12 -3 7 4 8 3 4 -5 -4
-6 -11 -9 -16 -6 -11 7 -22 -24 -13 -38 4 -7 -1 -6 -10 2 -15 12 -17 12 -11
-4 5 -13 4 -16 -4 -11 -8 5 -10 2 -6 -9 4 -8 1 -21 -5 -29 -6 -7 -8 -16 -4
-20 4 -4 -1 -4 -12 0 -15 6 -17 4 -12 -9 4 -12 1 -17 -11 -17 -15 0 -15 -2 -2
-10 13 -8 13 -10 -1 -10 -10 0 -16 -7 -15 -17 0 -10 -5 -17 -12 -15 -10 2 -11
-4 -7 -19 6 -18 4 -21 -9 -16 -10 4 -14 3 -11 -2 3 -5 1 -12 -5 -16 -6 -4 -7
-11 -4 -17 4 -6 -1 -17 -11 -24 -11 -8 -16 -21 -12 -34 3 -11 1 -18 -4 -14 -5
3 -17 0 -26 -5 -14 -8 -15 -10 -3 -11 13 0 13 -1 0 -10 -8 -5 -11 -10 -6 -10
6 0 1 -7 -10 -16 -17 -14 -17 -15 -1 -10 11 3 16 2 12 -4 -3 -6 -12 -10 -20
-10 -8 0 -17 -5 -21 -12 -5 -7 -3 -8 5 -3 16 10 -19 -46 -38 -61 -8 -6 -11
-16 -7 -22 4 -7 2 -12 -4 -12 -6 0 -9 -4 -6 -8 3 -5 -4 -16 -15 -25 -11 -10
-17 -22 -14 -27 3 -6 -1 -10 -9 -10 -9 0 -16 -5 -16 -11 0 -5 4 -7 10 -4 6 3
7 -1 4 -9 -3 -9 -10 -13 -15 -10 -5 3 -9 -2 -9 -11 0 -9 -5 -13 -10 -10 -6 4
-10 3 -9 -2 4 -22 -2 -43 -17 -57 -8 -9 -16 -24 -17 -35 -1 -12 -6 -17 -17
-13 -8 3 -12 2 -8 -3 4 -4 0 -13 -9 -20 -13 -9 -13 -14 -3 -20 9 -6 11 -4 5 6
-5 8 -5 11 -1 7 9 -7 9 -19 0 -15 -3 1 -12 -11 -20 -28 -8 -16 -12 -22 -9 -12
3 10 1 15 -5 12 -6 -3 -10 -17 -10 -31 0 -13 -5 -24 -11 -24 -7 0 -9 -9 -6
-21 4 -16 3 -18 -8 -9 -12 10 -13 8 -10 -10 3 -17 0 -20 -12 -16 -11 4 -14 2
-9 -9 3 -9 -3 -24 -12 -33 -10 -10 -22 -27 -25 -36 -4 -11 -13 -16 -22 -12 -9
3 -15 0 -15 -9 0 -8 -5 -15 -11 -15 -5 0 -7 -6 -4 -12 4 -7 -3 -2 -14 11 -13
14 -21 18 -21 10 0 -9 -12 -14 -34 -14 -20 0 -32 4 -29 11 2 6 -3 11 -11 11
-8 0 -13 -4 -10 -8 2 -4 -1 -11 -7 -15 -7 -4 -9 -3 -5 4 10 16 -14 26 -64 27
-32 0 -44 4 -42 13 1 8 -2 11 -8 7 -6 -3 -8 -10 -6 -14 3 -3 -4 -7 -15 -7 -13
0 -18 5 -14 15 3 9 3 12 -1 8 -4 -4 -12 -3 -18 3 -7 5 -17 5 -26 -2 -12 -8
-12 -9 3 -4 12 4 16 2 11 -6 -5 -7 -3 -8 6 -3 9 5 11 4 6 -3 -9 -15 -46 2 -47
21 0 9 -2 9 -6 0 -3 -9 -10 -10 -24 -3 -14 8 -19 7 -19 -2 0 -7 -5 -5 -13 5
-11 15 -15 15 -40 2 -15 -8 -25 -10 -22 -5 4 6 -1 10 -9 10 -9 0 -16 5 -16 11
0 8 -4 8 -14 0 -11 -9 -16 -9 -22 0 -5 8 -3 10 7 4 8 -5 11 -4 6 0 -4 5 -26 8
-47 6 -28 -2 -40 1 -40 11 0 8 -3 9 -8 2 -8 -12 -63 -14 -56 -2 3 5 9 6 14 3
5 -3 11 -2 13 2 3 5 -8 9 -24 9 -19 1 -26 -2 -22 -10 4 -6 -1 -5 -10 3 -9 7
-17 10 -17 6 0 -4 -6 -2 -13 4 -8 6 -17 8 -21 4 -10 -10 -46 -11 -40 -1 3 4
-2 8 -11 8 -9 0 -13 -5 -10 -10 10 -16 -1 -11 -16 7 -12 15 -12 16 1 8 8 -4
12 -4 7 0 -11 13 -47 13 -40 1 3 -6 0 -5 -8 2 -16 15 -33 16 -23 1 3 -6 -5 -3
-20 6 -19 13 -26 14 -26 4 0 -10 -3 -10 -12 -1 -8 8 -15 9 -25 1 -9 -8 -14 -7
-19 5 -3 9 -10 16 -16 16 -5 0 -7 -4 -4 -8 3 -5 -1 -9 -9 -9 -18 0 -19 9 -2
27 10 12 9 12 -3 4 -26 -19 -49 -23 -56 -12 -5 7 -2 8 6 3 9 -5 11 -4 6 3 -5
9 -13 9 -27 2 -14 -8 -19 -7 -19 2 0 9 -3 9 -10 -2 -9 -13 -10 -13 -10 0 0 13
-1 13 -10 0 -8 -13 -10 -13 -10 2 0 19 -28 14 -42 -6 -5 -7 -8 -7 -8 2 0 7 -4
11 -9 7 -5 -3 -12 -1 -16 4 -3 6 3 8 15 6 11 -2 22 0 24 4 6 10 -40 8 -50 -2
-4 -4 -13 -2 -21 4 -7 6 -22 9 -33 6 -11 -3 -27 1 -34 9 -12 11 -15 11 -20 -2
-6 -17 -26 -10 -26 9 0 7 4 6 10 -3 6 -9 10 -10 10 -3 0 20 -18 24 -29 6 -10
-17 -10 -17 -11 2 0 17 -2 17 -10 5 -6 -10 -10 -11 -10 -2 0 6 -5 12 -11 12
-5 0 -7 -6 -3 -12 4 -7 -3 -4 -16 7 -13 11 -20 14 -16 7 5 -8 1 -11 -16 -8
-13 3 -24 5 -25 7 -2 1 -8 2 -13 3 -6 0 -15 8 -21 16 -9 12 -10 12 -5 -3 3
-10 2 -16 -3 -12 -5 3 -11 2 -14 -2 -2 -5 -2 -2 -1 5 2 6 0 12 -4 13 -4 0 -15
2 -25 4 -11 2 -15 -1 -11 -8 5 -8 2 -7 -7 1 -16 15 -33 16 -23 1 3 -6 -5 -3
-20 6 -18 12 -26 14 -26 5 0 -9 -3 -10 -13 -1 -8 6 -17 8 -20 4 -4 -3 -7 -1
-7 5 0 7 -5 12 -11 12 -5 0 -8 -4 -5 -8 3 -5 -1 -9 -9 -9 -8 0 -12 4 -10 8 3
4 -2 9 -10 13 -8 3 -15 0 -15 -7 0 -8 -3 -8 -9 2 -5 8 -16 11 -30 6 -14 -4
-21 -2 -21 7 0 10 -3 9 -10 -2 -8 -13 -10 -13 -10 2 0 11 -6 15 -20 11 -11 -3
-17 -10 -13 -16 3 -6 1 -7 -5 -3 -6 4 -8 14 -5 24 6 15 5 15 -11 3 -12 -11
-20 -11 -24 -3 -4 6 -20 9 -36 8 -21 -3 -37 5 -66 33 -21 20 -36 44 -34 54 1
9 -5 24 -13 33 -8 8 -13 24 -10 34 3 11 2 18 -3 15 -4 -3 -11 2 -14 11 -3 8
-2 12 4 9 6 -3 10 -1 10 4 0 6 -6 11 -12 11 -10 0 -9 3 1 9 11 7 9 10 -9 16
-16 5 -19 9 -10 15 7 4 10 15 7 24 -4 11 -1 16 11 16 15 0 15 2 2 10 -13 9
-13 11 0 21 13 9 12 10 -3 5 -9 -3 -17 -1 -17 4 0 6 6 10 13 10 9 0 9 2 -1 9
-11 7 -11 9 2 14 18 7 22 27 5 27 -5 0 -7 -4 -4 -10 3 -5 0 -7 -9 -4 -12 5
-13 9 -3 19 7 7 17 10 22 7 6 -3 3 3 -5 13 -14 17 -13 18 2 12 14 -5 16 -2 9
16 -6 15 -4 26 8 35 9 8 10 10 2 6 -10 -5 -12 -3 -7 5 6 9 11 9 24 -1 13 -11
14 -11 8 1 -7 10 -3 12 14 6 17 -5 21 -4 15 6 -4 8 2 4 14 -8 24 -26 40 -31
21 -8 -11 13 -10 14 4 9 9 -3 16 -11 16 -17 0 -6 3 -8 6 -4 3 3 17 2 30 -3 19
-8 24 -6 25 8 1 16 2 16 6 0 3 -10 10 -15 20 -11 8 3 19 0 24 -8 6 -10 9 -11
9 -1 0 9 7 8 25 -4 21 -14 28 -14 42 -3 14 12 16 12 8 0 -6 -11 -3 -13 19 -7
16 4 26 2 26 -5 0 -6 7 -8 15 -5 8 3 23 9 33 12 14 5 15 4 2 -5 -13 -9 -11
-11 7 -11 12 0 23 -3 26 -7 2 -5 2 -2 1 5 -5 17 11 15 30 -4 12 -12 16 -12 16
-2 0 10 2 10 9 -1 5 -8 15 -11 23 -8 8 3 21 1 29 -3 8 -6 16 -4 21 3 6 9 8 8
8 -2 0 -11 3 -11 17 0 9 8 14 10 11 4 -3 -5 4 -19 15 -30 l20 -20 -12 22 c-8
15 -8 23 -1 23 5 0 10 -5 10 -11 0 -8 4 -8 14 0 11 9 16 9 22 0 4 -8 3 -9 -4
-5 -7 4 -12 2 -12 -3 0 -6 10 -9 23 -7 12 2 28 -1 35 -6 8 -7 12 -6 12 3 0 11
2 11 10 -1 9 -13 10 -13 10 0 0 13 1 13 10 0 7 -11 10 -11 10 -2 0 7 4 11 10
7 5 -3 8 -11 6 -18 -1 -7 -1 -9 1 -4 3 4 17 7 31 7 22 0 24 -2 12 -11 -12 -9
-11 -9 5 -4 11 4 29 6 40 5 11 -2 39 -3 62 -4 22 -1 39 -4 36 -8 -2 -5 1 -8 7
-8 6 0 8 -6 5 -13 -4 -6 1 -3 9 7 13 17 18 18 29 6 10 -10 9 -11 -3 -5 -8 5
-11 4 -7 0 15 -17 39 -14 33 3 -5 15 -4 14 8 -1 9 -12 22 -16 40 -13 25 4 32
-3 26 -29 -1 -5 2 -6 7 -2 4 5 8 13 8 18 0 5 5 8 10 7 6 -1 9 -9 7 -18 -2 -12
-1 -13 7 -1 5 8 21 15 36 17 25 3 25 2 10 -10 -17 -12 -16 -13 3 -11 12 1 25
4 28 8 11 10 24 8 24 -4 0 -5 -6 -7 -12 -3 -7 4 -9 3 -5 -1 4 -5 26 -8 49 -6
22 1 38 -1 35 -6 -4 -6 0 -10 8 -10 8 0 12 4 9 9 -3 4 0 8 5 8 6 0 11 -4 11
-9 0 -5 9 -11 20 -14 11 -3 18 -1 15 3 -3 5 8 5 25 0 16 -5 30 -6 30 -2 0 3 5
1 12 -6 8 -8 17 -8 31 -1 12 7 17 7 13 1 -3 -5 1 -13 10 -16 10 -4 13 -2 8 7
-4 6 -4 9 1 5 4 -4 15 -2 23 5 13 9 14 9 8 0 -4 -8 -2 -13 4 -13 6 0 8 -5 4
-12 -5 -9 -2 -9 9 1 13 10 17 10 17 1 0 -10 3 -10 15 0 9 8 15 9 15 2 0 -6 15
-11 33 -11 60 -1 86 -5 81 -13 -5 -7 43 -13 75 -9 8 2 10 -2 5 -10 -5 -8 -3
-10 7 -4 21 14 50 13 45 0 -2 -6 2 -12 10 -12 7 0 11 4 8 9 -3 4 0 8 5 8 6 0
11 -6 11 -12 0 -9 4 -8 10 2 8 12 10 12 10 -5 0 -15 2 -17 9 -6 6 9 11 10 15
2 5 -8 13 -8 27 -1 14 8 19 7 19 -2 0 -9 3 -9 10 2 8 12 10 12 10 1 0 -11 3
-11 17 0 14 12 16 12 9 -1 -4 -8 0 -6 8 4 14 17 16 17 16 3 0 -10 7 -15 20
-12 28 5 41 15 35 25 -3 5 0 12 6 16 8 4 9 3 5 -4 -12 -19 2 -14 26 10 13 13
21 29 20 37 -3 12 -1 13 11 2 12 -9 17 -9 23 0 4 7 3 9 -4 5 -6 -4 -10 1 -9
13 1 12 6 17 16 13 11 -4 13 -1 8 13 -7 16 -5 16 9 4 16 -13 16 -12 5 10 -11
19 -11 22 0 16 9 -6 11 -3 6 8 -4 12 -2 14 10 10 13 -5 15 -1 11 20 -3 14 -2
26 1 25 17 -2 31 3 30 10 -4 19 25 72 39 72 15 0 15 2 2 10 -13 8 -12 10 3 10
9 0 18 5 18 10 1 6 3 15 4 20 1 6 3 15 4 20 0 6 7 10 15 10 8 0 17 14 21 30 4
17 11 28 16 24 5 -3 9 2 9 11 0 10 -5 13 -12 9 -8 -4 -10 -3 -5 2 5 5 14 9 20
9 7 1 11 6 9 13 -1 7 3 12 9 12 5 0 7 5 4 10 -3 6 -1 10 4 10 6 0 11 7 11 15
0 7 7 18 16 23 9 5 17 13 17 18 1 5 5 8 8 7 3 -1 5 9 3 23 -2 22 0 23 14 12 9
-8 13 -8 9 -1 -10 16 3 44 16 36 5 -3 7 -1 3 5 -3 6 0 16 7 24 8 7 12 19 9 27
-3 8 0 11 7 7 6 -4 11 0 11 9 0 10 5 13 13 9 8 -5 7 -2 -2 9 -12 15 -12 17 4
11 13 -5 16 -4 11 4 -4 7 -2 12 3 12 6 0 11 12 11 28 0 21 2 24 10 12 8 -13
10 -13 11 3 1 9 3 22 4 27 1 6 3 13 4 18 1 4 5 1 10 -6 6 -10 10 -9 14 7 3 14
1 19 -6 14 -6 -3 -2 6 9 20 10 15 22 27 26 27 4 0 5 10 3 22 -4 16 -2 19 7 10
7 -7 17 -12 22 -12 6 0 4 5 -4 10 -13 9 -13 12 3 24 14 11 15 15 5 19 -8 4 -7
6 5 6 10 1 17 9 17 21 0 11 9 25 20 32 11 7 20 16 20 21 0 4 -4 5 -10 2 -6 -3
-7 1 -4 9 3 9 10 13 15 10 5 -3 10 0 10 5 4 31 20 62 29 56 12 -7 23 32 14 46
-4 8 -3 9 4 5 19 -12 35 4 21 20 -7 9 -8 14 -3 13 23 -4 33 2 27 18 -4 11 -3
14 5 9 7 -4 12 -1 12 9 0 10 -5 13 -12 9 -7 -4 -8 -3 -4 4 4 6 12 9 19 6 8 -3
13 5 14 18 1 13 15 34 30 47 15 13 22 20 15 16 -12 -6 -12 -3 -1 16 7 13 12
27 11 31 -1 4 4 5 12 2 12 -5 32 37 28 58 -1 4 10 16 24 27 14 11 23 25 19 31
-3 5 -1 10 5 10 6 0 8 5 4 12 -5 7 -2 9 9 5 11 -4 14 -2 11 7 -3 8 0 17 5 21
6 3 9 11 6 16 -3 5 0 6 7 4 9 -4 14 2 15 15 1 12 -2 18 -9 14 -6 -4 -8 -2 -4
4 3 6 16 9 27 7 16 -3 18 -1 10 9 -9 10 -8 15 4 20 8 3 15 10 15 16 0 6 -6 8
-12 4 -8 -4 -10 -3 -5 2 5 5 13 10 18 10 22 3 23 5 9 14 -12 8 -11 10 8 10 16
0 22 5 20 18 -2 10 2 16 11 14 12 -3 12 0 1 12 -7 9 -10 17 -6 17 3 1 10 2 15
3 15 2 25 16 12 16 -8 0 -7 5 3 16 9 8 14 20 11 25 -4 5 2 6 11 2 12 -4 15 -3
10 5 -4 7 -2 12 6 12 9 0 9 3 -2 10 -13 8 -12 10 3 10 10 0 15 5 12 10 -3 6
-1 10 4 10 6 0 11 7 11 16 0 10 5 14 15 10 13 -5 14 -2 4 15 -8 15 -8 19 0 15
10 -7 15 5 12 29 -1 6 6 1 14 -9 13 -18 15 -18 16 -3 1 9 3 22 4 27 1 6 3 12
4 15 3 14 9 3 6 -12z m-1612 -428 c-3 -9 -8 -14 -10 -11 -3 3 -2 9 2 15 9 16
15 13 8 -4z m-73 -110 c0 -5 5 -3 10 5 9 13 10 13 10 0 0 -13 1 -13 10 0 5 8
10 10 10 3 0 -7 16 -10 44 -8 30 1 43 -2 40 -10 -3 -7 10 -11 41 -10 25 0 45
-3 45 -8 0 -5 6 -4 14 2 9 7 17 8 20 2 3 -5 15 -7 26 -4 14 4 20 0 20 -13 0
-9 -3 -14 -7 -11 -3 4 -14 -5 -23 -21 -13 -20 -15 -31 -6 -42 5 -8 7 -12 2 -8
-10 8 -46 -22 -46 -40 0 -8 -5 -10 -12 -6 -9 6 -9 3 0 -9 12 -14 11 -16 -7
-12 -12 2 -21 0 -21 -6 0 -5 6 -9 13 -10 10 0 10 -2 0 -6 -7 -2 -13 -12 -13
-20 0 -13 -2 -13 -17 -2 -15 13 -15 12 -5 -7 7 -14 7 -25 0 -35 -8 -11 -8 -10
-3 6 6 20 6 20 -13 0 -10 -11 -15 -22 -11 -25 5 -3 0 -12 -11 -20 -11 -8 -20
-20 -20 -27 0 -6 -5 -15 -12 -19 -7 -5 -8 -3 -3 6 5 8 4 11 -3 6 -6 -4 -9 -13
-6 -20 3 -7 -1 -16 -9 -19 -8 -3 -22 -19 -30 -36 -9 -17 -11 -28 -5 -25 7 5 8
2 4 -5 -5 -7 -14 -10 -22 -7 -9 3 -11 0 -7 -11 5 -12 3 -14 -7 -8 -10 6 -12 4
-7 -8 4 -12 1 -17 -10 -17 -13 0 -13 -3 -3 -16 8 -8 9 -14 4 -13 -21 4 -48 -2
-39 -9 24 -17 13 -38 -18 -33 -4 0 -6 -2 -6 -6 3 -20 -2 -34 -11 -28 -5 3 -10
-4 -10 -15 0 -15 -5 -20 -14 -17 -15 6 -30 -19 -20 -34 3 -5 -6 -14 -20 -20
-14 -7 -23 -16 -20 -21 3 -5 0 -7 -7 -6 -7 2 -13 -4 -14 -12 0 -9 -9 -15 -23
-14 -12 0 -22 -3 -22 -8 0 -4 6 -8 13 -8 8 0 7 -3 -3 -9 -8 -6 -18 -7 -24 -4
-5 4 -7 -3 -3 -16 4 -18 3 -20 -9 -10 -11 9 -14 9 -14 -1 0 -7 -6 -10 -14 -7
-10 4 -12 0 -9 -14 4 -15 2 -18 -12 -12 -14 5 -16 3 -10 -7 6 -10 4 -12 -9 -7
-9 4 -15 3 -12 -2 8 -12 -21 -34 -34 -26 -5 3 -10 1 -10 -5 0 -6 -5 -8 -12 -4
-9 5 -8 2 1 -9 12 -15 12 -17 -3 -11 -9 4 -16 1 -16 -6 0 -7 -7 -10 -15 -6 -9
3 -18 -1 -21 -9 -4 -8 -10 -12 -15 -9 -5 3 -9 0 -9 -6 0 -6 -4 -8 -10 -5 -5 3
-10 2 -10 -4 0 -6 -7 -8 -15 -5 -8 4 -17 -1 -21 -10 -3 -9 -14 -16 -24 -16
-10 0 -20 -3 -23 -7 -2 -5 -2 -2 0 6 2 8 -2 11 -10 8 -8 -3 -14 1 -14 9 0 8 5
14 10 14 6 0 7 3 4 7 -4 3 -1 13 6 21 9 13 9 14 0 8 -7 -4 -13 -2 -13 3 0 6 6
11 14 11 10 0 13 7 11 20 -2 12 0 18 6 14 7 -4 9 5 6 24 -4 25 -2 29 11 25 10
-4 13 -2 8 5 -4 7 -3 12 2 12 5 0 8 14 6 31 -3 25 -1 30 12 25 8 -3 12 -2 9 4
-3 6 0 10 7 10 10 0 10 2 -1 9 -10 6 -10 10 -1 16 9 6 9 10 -1 16 -11 7 -10 9
3 9 9 0 20 5 24 12 5 7 2 9 -7 4 -8 -4 -7 -1 3 6 11 10 13 19 7 30 -7 12 -4
15 8 14 10 0 18 6 18 14 1 8 5 14 11 13 5 -1 11 8 11 20 1 11 9 25 18 29 8 5
13 13 10 19 -3 5 1 6 9 3 11 -4 14 1 12 20 -2 14 2 24 8 23 6 -1 10 4 8 11 -1
8 2 11 7 8 10 -6 27 31 22 48 -1 5 4 4 12 -3 12 -9 15 -8 13 6 0 10 5 17 12
15 10 -2 10 2 1 20 -11 21 -11 22 5 9 9 -8 16 -10 15 -5 -4 21 2 35 12 28 7
-4 10 -1 7 7 -3 8 7 22 21 33 14 10 18 16 9 12 -10 -3 -20 0 -24 6 -4 7 -3 8
5 4 6 -4 14 0 17 8 3 9 14 16 23 16 14 0 14 2 1 10 -13 8 -13 10 2 10 9 0 20
5 24 12 4 7 3 8 -4 4 -8 -5 -10 -2 -6 8 3 9 10 13 15 10 5 -3 9 2 9 10 0 9 4
16 10 16 5 0 7 7 4 15 -7 18 12 20 20 3 4 -9 5 -8 5 2 -2 32 2 42 14 37 8 -3
14 1 14 9 0 7 -5 11 -11 8 -6 -3 -2 2 8 10 11 9 16 16 10 16 -5 0 2 10 16 21
14 11 19 17 11 13 -9 -5 -12 -3 -7 4 4 7 14 12 23 12 12 0 13 3 4 13 -6 8 -9
16 -6 18 9 9 65 4 65 -6z m190 5 c0 -5 -4 -10 -10 -10 -5 0 -10 5 -10 10 0 6
5 10 10 10 6 0 10 -4 10 -10z m1490 -4 c0 -3 -4 -8 -10 -11 -5 -3 -10 -1 -10
4 0 6 5 11 10 11 6 0 10 -2 10 -4z m-1390 -69 c0 -2 -10 -12 -21 -23 -22 -19
-22 -19 -8 4 12 19 29 30 29 19z m-237 -342 c-3 -9 -8 -14 -10 -11 -3 3 -2 9
2 15 9 16 15 13 8 -4z m1297 -145 c-6 -11 -13 -20 -16 -20 -2 0 0 9 6 20 6 11
13 20 16 20 2 0 0 -9 -6 -20z m-2766 -649 c-2 -3 -12 3 -22 13 -16 17 -16 18
5 5 12 -7 20 -15 17 -18z m2191 -351 c-3 -5 -12 -10 -18 -10 -7 0 -6 4 3 10
19 12 23 12 15 0z m-1805 -276 c0 -8 -19 -13 -24 -6 -3 5 1 9 9 9 8 0 15 -2
15 -3z m878 -159 c-3 -3 -9 2 -12 12 -6 14 -5 15 5 6 7 -7 10 -15 7 -18z m182
-11 c0 -8 -19 -13 -24 -6 -3 5 1 9 9 9 8 0 15 -2 15 -3z"/>
<path d="M2150 2650 c0 -5 5 -10 11 -10 5 0 7 5 4 10 -3 6 -8 10 -11 10 -2 0
-4 -4 -4 -10z"/>
<path d="M2225 2580 c-3 -6 1 -7 9 -4 18 7 21 14 7 14 -6 0 -13 -4 -16 -10z"/>
<path d="M2187 2545 c3 -8 9 -12 14 -9 12 7 11 11 -5 17 -10 4 -13 1 -9 -8z"/>
<path d="M3580 2599 c0 -5 5 -7 10 -4 6 3 10 8 10 11 0 2 -4 4 -10 4 -5 0 -10
-5 -10 -11z"/>
<path d="M3225 2369 c-4 -6 -5 -12 -2 -15 2 -3 7 2 10 11 7 17 1 20 -8 4z"/>
<path d="M3411 2314 c0 -11 3 -14 6 -6 3 7 2 16 -1 19 -3 4 -6 -2 -5 -13z"/>
<path d="M3095 2160 c-3 -5 -1 -10 4 -10 6 0 11 5 11 10 0 6 -2 10 -4 10 -3 0
-8 -4 -11 -10z"/>
<path d="M3035 1670 c-3 -5 -2 -10 4 -10 5 0 13 5 16 10 3 6 2 10 -4 10 -5 0
-13 -4 -16 -10z"/>
<path d="M2585 1321 c-3 -5 -2 -12 3 -15 5 -3 9 1 9 9 0 17 -3 19 -12 6z"/>
<path d="M1934 1078 c-4 -7 -4 -10 1 -6 4 4 15 2 24 -5 14 -11 14 -10 2 6 -16
20 -18 21 -27 5z"/>
<path d="M2066 2498 c3 -5 10 -6 15 -3 13 9 11 12 -6 12 -8 0 -12 -4 -9 -9z"/>
<path d="M2048 2371 c4 -10 1 -12 -7 -6 -10 5 -12 1 -7 -16 3 -13 3 -18 0 -11
-8 17 -27 15 -20 -3 3 -8 -1 -18 -9 -22 -8 -5 -16 -17 -17 -28 -4 -22 -16 -31
-26 -19 -4 4 -1 4 7 -1 10 -5 12 -4 7 4 -13 21 -26 1 -15 -26 8 -22 8 -24 -5
-14 -13 11 -15 9 -11 -8 3 -15 0 -18 -13 -14 -9 3 -13 2 -9 -2 4 -5 -3 -15
-15 -22 -13 -7 -16 -12 -8 -11 8 1 25 -3 38 -10 12 -7 22 -9 21 -5 -1 4 0 11
1 16 3 9 7 24 9 35 1 4 6 0 12 -8 9 -13 10 -12 5 2 -3 11 4 24 19 37 14 10 25
22 25 26 0 4 -6 2 -14 -4 -11 -9 -12 -6 -8 15 3 19 7 22 13 12 9 -13 10 -11
13 15 0 6 6 12 13 12 13 0 27 13 29 26 1 5 2 10 4 12 12 15 4 33 -15 33 -16 0
-21 -4 -17 -15z m25 -14 c-4 -7 -8 -15 -8 -19 0 -3 -3 -9 -7 -13 -5 -6 -4 19
2 35 1 3 2 9 1 13 -1 5 3 6 9 2 6 -3 7 -12 3 -18z"/>
<path d="M1902 2163 c-9 -4 -10 -9 -2 -18 8 -9 5 -12 -14 -10 -17 2 -23 -2
-22 -14 0 -9 -4 -15 -9 -14 -6 1 -12 -8 -12 -20 -1 -12 -9 -27 -18 -33 -8 -6
-15 -15 -15 -19 0 -5 8 -1 18 8 15 14 19 15 19 2 0 -8 -4 -12 -8 -9 -4 2 -10
0 -14 -6 -4 -6 -10 -8 -15 -5 -5 3 -11 1 -15 -5 -3 -5 -1 -10 4 -10 6 0 3 -9
-6 -19 -9 -11 -20 -18 -25 -15 -5 3 -8 2 -7 -3 1 -4 -1 -16 -5 -25 -5 -10 -5
-26 -1 -35 6 -14 9 -15 12 -4 8 21 41 50 48 43 4 -4 4 4 0 17 -5 16 -4 21 4
17 6 -4 11 -2 11 3 0 6 8 11 18 12 15 0 15 1 -2 8 -17 7 -18 8 -3 14 9 3 23
22 31 42 8 19 18 35 21 35 3 0 1 -10 -5 -22 -11 -22 -10 -22 4 -4 9 11 16 26
16 33 0 7 5 13 11 13 5 0 8 4 5 9 -4 5 -1 11 5 13 8 3 7 7 -2 15 -8 5 -20 8
-27 6z m-34 -73 c-7 -10 -14 -17 -17 -15 -4 4 18 35 25 35 2 0 -1 -9 -8 -20z"/>
<path d="M1721 1906 c-15 -18 5 -34 22 -17 9 9 7 10 -8 5 -18 -7 -18 -6 -6 9
7 9 11 17 8 17 -2 0 -10 -6 -16 -14z"/>
<path d="M1805 1830 c-3 -6 1 -7 9 -4 18 7 21 14 7 14 -6 0 -13 -4 -16 -10z"/>
<path d="M1315 2980 c-3 -5 -1 -10 4 -10 6 0 11 5 11 10 0 6 -2 10 -4 10 -3 0
-8 -4 -11 -10z"/>
<path d="M1135 2720 c-3 -5 -1 -10 4 -10 6 0 11 5 11 10 0 6 -2 10 -4 10 -3 0
-8 -4 -11 -10z"/>
<path d="M990 2519 c0 -5 5 -7 10 -4 6 3 10 8 10 11 0 2 -4 4 -10 4 -5 0 -10
-5 -10 -11z"/>
<path d="M876 2367 c3 -10 9 -15 12 -12 3 3 0 11 -7 18 -10 9 -11 8 -5 -6z"/>
<path d="M616 2005 c-11 -8 -15 -15 -9 -15 6 0 16 7 23 15 16 19 11 19 -14 0z"/>
</g>
</svg>
